<svg width="86" height="86" viewBox="0 0 86 86" fill="none" xmlns="http://www.w3.org/2000/svg">
<g clip-path="url(#clip0_2_8)">
<path d="M86 0H0V86H86V0Z" fill="white"/>
<path d="M8.385 5.375H5.375V8.385H8.385V5.375Z" fill="#333333"/>
<path d="M11.395 5.375H8.385V8.385H11.395V5.375Z" fill="#333333"/>
<path d="M14.405 5.375H11.395V8.385H14.405V5.375Z" fill="#333333"/>
<path d="M17.415 5.375H14.405V8.385H17.415V5.375Z" fill="#333333"/>
<path d="M20.425 5.375H17.415V8.385H20.425V5.375Z" fill="#333333"/>
<path d="M23.435 5.375H20.425V8.385H23.435V5.375Z" fill="#333333"/>
<path d="M26.445 5.375H23.435V8.385H26.445V5.375Z" fill="#333333"/>
<path d="M32.465 5.375H29.455V8.385H32.465V5.375Z" fill="#333333"/>
<path d="M35.475 5.375H32.465V8.385H35.475V5.375Z" fill="#333333"/>
<path d="M38.485 5.375H35.475V8.385H38.485V5.375Z" fill="#333333"/>
<path d="M41.495 5.375H38.485V8.385H41.495V5.375Z" fill="#333333"/>
<path d="M44.505 5.375H41.495V8.385H44.505V5.375Z" fill="#333333"/>
<path d="M47.515 5.375H44.505V8.385H47.515V5.375Z" fill="#333333"/>
<path d="M56.545 5.375H53.535V8.385H56.545V5.375Z" fill="#333333"/>
<path d="M62.565 5.375H59.555V8.385H62.565V5.375Z" fill="#333333"/>
<path d="M65.575 5.375H62.565V8.385H65.575V5.375Z" fill="#333333"/>
<path d="M68.585 5.375H65.575V8.385H68.585V5.375Z" fill="#333333"/>
<path d="M71.595 5.375H68.585V8.385H71.595V5.375Z" fill="#333333"/>
<path d="M74.605 5.375H71.595V8.385H74.605V5.375Z" fill="#333333"/>
<path d="M77.615 5.375H74.605V8.385H77.615V5.375Z" fill="#333333"/>
<path d="M80.625 5.375H77.615V8.385H80.625V5.375Z" fill="#333333"/>
<path d="M8.385 8.385H5.375V11.395H8.385V8.385Z" fill="#333333"/>
<path d="M26.445 8.385H23.435L23.435 11.395H26.445V8.385Z" fill="#333333"/>
<path d="M35.475 8.385H32.465V11.395H35.475V8.385Z" fill="#333333"/>
<path d="M38.485 8.385H35.475V11.395H38.485V8.385Z" fill="#333333"/>
<path d="M44.505 8.385H41.495V11.395H44.505V8.385Z" fill="#333333"/>
<path d="M56.545 8.385H53.535V11.395H56.545V8.385Z" fill="#333333"/>
<path d="M62.565 8.385H59.555V11.395H62.565V8.385Z" fill="#333333"/>
<path d="M80.625 8.385H77.615V11.395H80.625V8.385Z" fill="#333333"/>
<path d="M8.385 11.395H5.375V14.405H8.385V11.395Z" fill="#333333"/>
<path d="M14.405 11.395H11.395V14.405H14.405V11.395Z" fill="#333333"/>
<path d="M17.415 11.395H14.405V14.405H17.415V11.395Z" fill="#333333"/>
<path d="M20.425 11.395H17.415V14.405H20.425V11.395Z" fill="#333333"/>
<path d="M26.445 11.395H23.435V14.405H26.445V11.395Z" fill="#333333"/>
<path d="M38.485 11.395H35.475V14.405H38.485V11.395Z" fill="#333333"/>
<path d="M44.505 11.395H41.495V14.405H44.505V11.395Z" fill="#333333"/>
<path d="M50.525 11.395H47.515V14.405H50.525V11.395Z" fill="#333333"/>
<path d="M62.565 11.395H59.555V14.405H62.565V11.395Z" fill="#333333"/>
<path d="M68.585 11.395H65.575V14.405H68.585V11.395Z" fill="#333333"/>
<path d="M71.595 11.395H68.585V14.405H71.595V11.395Z" fill="#333333"/>
<path d="M74.605 11.395H71.595V14.405H74.605V11.395Z" fill="#333333"/>
<path d="M80.625 11.395H77.615V14.405H80.625V11.395Z" fill="#333333"/>
<path d="M8.385 14.405H5.375V17.415H8.385V14.405Z" fill="#333333"/>
<path d="M14.405 14.405H11.395V17.415H14.405V14.405Z" fill="#333333"/>
<path d="M17.415 14.405H14.405V17.415H17.415V14.405Z" fill="#333333"/>
<path d="M20.425 14.405H17.415V17.415H20.425V14.405Z" fill="#333333"/>
<path d="M26.445 14.405H23.435V17.415H26.445V14.405Z" fill="#333333"/>
<path d="M38.485 14.405H35.475V17.415H38.485V14.405Z" fill="#333333"/>
<path d="M41.495 14.405H38.485V17.415H41.495V14.405Z" fill="#333333"/>
<path d="M44.505 14.405H41.495V17.415H44.505V14.405Z" fill="#333333"/>
<path d="M50.525 14.405H47.515V17.415H50.525V14.405Z" fill="#333333"/>
<path d="M53.535 14.405H50.525V17.415H53.535V14.405Z" fill="#333333"/>
<path d="M62.565 14.405H59.555V17.415H62.565V14.405Z" fill="#333333"/>
<path d="M68.585 14.405H65.575V17.415H68.585V14.405Z" fill="#333333"/>
<path d="M71.595 14.405H68.585V17.415H71.595V14.405Z" fill="#333333"/>
<path d="M74.605 14.405H71.595V17.415H74.605V14.405Z" fill="#333333"/>
<path d="M80.625 14.405H77.615V17.415H80.625V14.405Z" fill="#333333"/>
<path d="M8.385 17.415H5.375V20.425H8.385V17.415Z" fill="#333333"/>
<path d="M14.405 17.415H11.395V20.425H14.405V17.415Z" fill="#333333"/>
<path d="M17.415 17.415H14.405V20.425H17.415V17.415Z" fill="#333333"/>
<path d="M20.425 17.415H17.415V20.425H20.425V17.415Z" fill="#333333"/>
<path d="M26.445 17.415H23.435V20.425H26.445V17.415Z" fill="#333333"/>
<path d="M32.465 17.415H29.455V20.425H32.465V17.415Z" fill="#333333"/>
<path d="M38.485 17.415H35.475V20.425H38.485V17.415Z" fill="#333333"/>
<path d="M44.505 17.415H41.495V20.425H44.505V17.415Z" fill="#333333"/>
<path d="M47.515 17.415H44.505V20.425H47.515V17.415Z" fill="#333333"/>
<path d="M53.535 17.415H50.525L50.525 20.425H53.535V17.415Z" fill="#333333"/>
<path d="M62.565 17.415H59.555V20.425H62.565V17.415Z" fill="#333333"/>
<path d="M68.585 17.415H65.575V20.425H68.585V17.415Z" fill="#333333"/>
<path d="M71.595 17.415H68.585V20.425H71.595V17.415Z" fill="#333333"/>
<path d="M74.605 17.415H71.595V20.425H74.605V17.415Z" fill="#333333"/>
<path d="M80.625 17.415H77.615V20.425H80.625V17.415Z" fill="#333333"/>
<path d="M8.385 20.425H5.375V23.435H8.385V20.425Z" fill="#333333"/>
<path d="M26.445 20.425H23.435V23.435H26.445V20.425Z" fill="#333333"/>
<path d="M38.485 20.425H35.475V23.435H38.485V20.425Z" fill="#333333"/>
<path d="M50.525 20.425H47.515V23.435H50.525L50.525 20.425Z" fill="#333333"/>
<path d="M53.535 20.425H50.525L50.525 23.435H53.535V20.425Z" fill="#333333"/>
<path d="M56.545 20.425H53.535V23.435H56.545V20.425Z" fill="#333333"/>
<path d="M62.565 20.425H59.555V23.435H62.565V20.425Z" fill="#333333"/>
<path d="M80.625 20.425H77.615V23.435H80.625V20.425Z" fill="#333333"/>
<path d="M8.385 23.435H5.375V26.445H8.385V23.435Z" fill="#333333"/>
<path d="M11.395 23.435L8.385 23.435V26.445H11.395V23.435Z" fill="#333333"/>
<path d="M14.405 23.435H11.395V26.445H14.405V23.435Z" fill="#333333"/>
<path d="M17.415 23.435H14.405V26.445H17.415V23.435Z" fill="#333333"/>
<path d="M20.425 23.435H17.415V26.445H20.425V23.435Z" fill="#333333"/>
<path d="M23.435 23.435L20.425 23.435V26.445H23.435L23.435 23.435Z" fill="#333333"/>
<path d="M26.445 23.435H23.435L23.435 26.445H26.445V23.435Z" fill="#333333"/>
<path d="M32.465 23.435H29.455V26.445H32.465V23.435Z" fill="#333333"/>
<path d="M38.485 23.435H35.475V26.445H38.485V23.435Z" fill="#333333"/>
<path d="M44.505 23.435H41.495V26.445H44.505V23.435Z" fill="#333333"/>
<path d="M50.525 23.435H47.515V26.445H50.525V23.435Z" fill="#333333"/>
<path d="M56.545 23.435H53.535V26.445H56.545V23.435Z" fill="#333333"/>
<path d="M62.565 23.435H59.555V26.445H62.565V23.435Z" fill="#333333"/>
<path d="M65.575 23.435L62.565 23.435V26.445H65.575V23.435Z" fill="#333333"/>
<path d="M68.585 23.435H65.575V26.445H68.585V23.435Z" fill="#333333"/>
<path d="M71.595 23.435H68.585V26.445H71.595V23.435Z" fill="#333333"/>
<path d="M74.605 23.435H71.595V26.445H74.605V23.435Z" fill="#333333"/>
<path d="M77.615 23.435L74.605 23.435V26.445H77.615V23.435Z" fill="#333333"/>
<path d="M80.625 23.435H77.615V26.445H80.625V23.435Z" fill="#333333"/>
<path d="M32.465 26.445H29.455V29.455H32.465V26.445Z" fill="#333333"/>
<path d="M47.515 26.445H44.505V29.455H47.515V26.445Z" fill="#333333"/>
<path d="M50.525 26.445H47.515V29.455H50.525V26.445Z" fill="#333333"/>
<path d="M8.385 29.455H5.375V32.465H8.385V29.455Z" fill="#333333"/>
<path d="M17.415 29.455H14.405V32.465H17.415V29.455Z" fill="#333333"/>
<path d="M20.425 29.455H17.415V32.465H20.425V29.455Z" fill="#333333"/>
<path d="M23.435 29.455H20.425V32.465H23.435V29.455Z" fill="#333333"/>
<path d="M26.445 29.455H23.435V32.465H26.445V29.455Z" fill="#333333"/>
<path d="M29.455 29.455H26.445V32.465H29.455V29.455Z" fill="#333333"/>
<path d="M32.465 29.455H29.455V32.465H32.465V29.455Z" fill="#333333"/>
<path d="M47.515 29.455H44.505V32.465H47.515V29.455Z" fill="#333333"/>
<path d="M50.525 29.455H47.515V32.465H50.525V29.455Z" fill="#333333"/>
<path d="M56.545 29.455H53.535V32.465H56.545V29.455Z" fill="#333333"/>
<path d="M59.555 29.455H56.545V32.465H59.555V29.455Z" fill="#333333"/>
<path d="M62.565 29.455H59.555V32.465H62.565V29.455Z" fill="#333333"/>
<path d="M68.585 29.455H65.575V32.465H68.585V29.455Z" fill="#333333"/>
<path d="M80.625 29.455H77.615V32.465H80.625V29.455Z" fill="#333333"/>
<path d="M14.405 32.465H11.395V35.475H14.405V32.465Z" fill="#333333"/>
<path d="M17.415 32.465H14.405V35.475H17.415V32.465Z" fill="#333333"/>
<path d="M23.435 32.465H20.425V35.475H23.435V32.465Z" fill="#333333"/>
<path d="M35.475 32.465H32.465V35.475H35.475V32.465Z" fill="#333333"/>
<path d="M38.485 32.465H35.475V35.475H38.485V32.465Z" fill="#333333"/>
<path d="M44.505 32.465H41.495V35.475H44.505V32.465Z" fill="#333333"/>
<path d="M50.525 32.465H47.515V35.475H50.525V32.465Z" fill="#333333"/>
<path d="M56.545 32.465H53.535V35.475H56.545V32.465Z" fill="#333333"/>
<path d="M59.555 32.465H56.545V35.475H59.555V32.465Z" fill="#333333"/>
<path d="M68.585 32.465H65.575V35.475H68.585V32.465Z" fill="#333333"/>
<path d="M71.595 32.465H68.585V35.475H71.595V32.465Z" fill="#333333"/>
<path d="M8.385 35.475H5.375V38.485H8.385V35.475Z" fill="#333333"/>
<path d="M20.425 35.475H17.415V38.485H20.425V35.475Z" fill="#333333"/>
<path d="M26.445 35.475H23.435L23.435 38.485H26.445V35.475Z" fill="#333333"/>
<path d="M32.465 35.475H29.455V38.485H32.465V35.475Z" fill="#333333"/>
<path d="M41.495 35.475H38.485V38.485H41.495V35.475Z" fill="#333333"/>
<path d="M44.505 35.475H41.495V38.485H44.505V35.475Z" fill="#333333"/>
<path d="M50.525 35.475H47.515V38.485H50.525V35.475Z" fill="#333333"/>
<path d="M53.535 35.475H50.525V38.485H53.535V35.475Z" fill="#333333"/>
<path d="M62.565 35.475H59.555V38.485H62.565V35.475Z" fill="#333333"/>
<path d="M65.575 35.475H62.565V38.485H65.575V35.475Z" fill="#333333"/>
<path d="M68.585 35.475H65.575V38.485H68.585V35.475Z" fill="#333333"/>
<path d="M71.595 35.475H68.585V38.485H71.595V35.475Z" fill="#333333"/>
<path d="M74.605 35.475H71.595V38.485H74.605V35.475Z" fill="#333333"/>
<path d="M80.625 35.475H77.615V38.485H80.625V35.475Z" fill="#333333"/>
<path d="M11.395 38.485H8.385V41.495H11.395V38.485Z" fill="#333333"/>
<path d="M17.415 38.485H14.405V41.495H17.415V38.485Z" fill="#333333"/>
<path d="M29.455 38.485H26.445V41.495H29.455V38.485Z" fill="#333333"/>
<path d="M32.465 38.485H29.455V41.495H32.465V38.485Z" fill="#333333"/>
<path d="M35.475 38.485H32.465V41.495H35.475V38.485Z" fill="#333333"/>
<path d="M41.495 38.485H38.485V41.495H41.495V38.485Z" fill="#333333"/>
<path d="M50.525 38.485H47.515V41.495H50.525V38.485Z" fill="#333333"/>
<path d="M53.535 38.485H50.525V41.495H53.535V38.485Z" fill="#333333"/>
<path d="M68.585 38.485H65.575V41.495H68.585V38.485Z" fill="#333333"/>
<path d="M74.605 38.485H71.595V41.495H74.605V38.485Z" fill="#333333"/>
<path d="M77.615 38.485H74.605V41.495H77.615V38.485Z" fill="#333333"/>
<path d="M8.385 41.495H5.375V44.505H8.385V41.495Z" fill="#333333"/>
<path d="M20.425 41.495H17.415V44.505H20.425V41.495Z" fill="#333333"/>
<path d="M26.445 41.495H23.435V44.505H26.445V41.495Z" fill="#333333"/>
<path d="M47.515 41.495H44.505V44.505H47.515V41.495Z" fill="#333333"/>
<path d="M50.525 41.495H47.515V44.505H50.525V41.495Z" fill="#333333"/>
<path d="M56.545 41.495H53.535V44.505H56.545V41.495Z" fill="#333333"/>
<path d="M65.575 41.495H62.565V44.505H65.575V41.495Z" fill="#333333"/>
<path d="M71.595 41.495H68.585V44.505H71.595V41.495Z" fill="#333333"/>
<path d="M74.605 41.495H71.595V44.505H74.605V41.495Z" fill="#333333"/>
<path d="M80.625 41.495H77.615V44.505H80.625V41.495Z" fill="#333333"/>
<path d="M11.395 44.505H8.385V47.515H11.395V44.505Z" fill="#333333"/>
<path d="M29.455 44.505H26.445V47.515H29.455V44.505Z" fill="#333333"/>
<path d="M32.465 44.505H29.455V47.515H32.465V44.505Z" fill="#333333"/>
<path d="M35.475 44.505H32.465V47.515H35.475V44.505Z" fill="#333333"/>
<path d="M44.505 44.505H41.495V47.515H44.505V44.505Z" fill="#333333"/>
<path d="M50.525 44.505H47.515V47.515H50.525V44.505Z" fill="#333333"/>
<path d="M53.535 44.505H50.525V47.515H53.535V44.505Z" fill="#333333"/>
<path d="M56.545 44.505H53.535V47.515H56.545V44.505Z" fill="#333333"/>
<path d="M59.555 44.505H56.545V47.515H59.555V44.505Z" fill="#333333"/>
<path d="M68.585 44.505H65.575V47.515H68.585V44.505Z" fill="#333333"/>
<path d="M74.605 44.505H71.595V47.515H74.605V44.505Z" fill="#333333"/>
<path d="M77.615 44.505H74.605V47.515H77.615V44.505Z" fill="#333333"/>
<path d="M80.625 44.505H77.615V47.515H80.625V44.505Z" fill="#333333"/>
<path d="M11.395 47.515H8.385V50.525H11.395V47.515Z" fill="#333333"/>
<path d="M14.405 47.515H11.395V50.525H14.405V47.515Z" fill="#333333"/>
<path d="M20.425 47.515H17.415V50.525H20.425V47.515Z" fill="#333333"/>
<path d="M26.445 47.515H23.435V50.525H26.445V47.515Z" fill="#333333"/>
<path d="M35.475 47.515H32.465V50.525H35.475V47.515Z" fill="#333333"/>
<path d="M41.495 47.515H38.485V50.525H41.495V47.515Z" fill="#333333"/>
<path d="M44.505 47.515H41.495V50.525H44.505V47.515Z" fill="#333333"/>
<path d="M50.525 47.515H47.515V50.525H50.525V47.515Z" fill="#333333"/>
<path d="M59.555 47.515H56.545V50.525H59.555V47.515Z" fill="#333333"/>
<path d="M65.575 47.515H62.565V50.525H65.575V47.515Z" fill="#333333"/>
<path d="M68.585 47.515H65.575V50.525H68.585V47.515Z" fill="#333333"/>
<path d="M74.605 47.515H71.595V50.525H74.605V47.515Z" fill="#333333"/>
<path d="M8.385 50.525L5.375 50.525V53.535H8.385V50.525Z" fill="#333333"/>
<path d="M14.405 50.525H11.395V53.535H14.405V50.525Z" fill="#333333"/>
<path d="M17.415 50.525H14.405V53.535H17.415V50.525Z" fill="#333333"/>
<path d="M20.425 50.525H17.415V53.535H20.425V50.525Z" fill="#333333"/>
<path d="M29.455 50.525L26.445 50.525V53.535H29.455V50.525Z" fill="#333333"/>
<path d="M35.475 50.525H32.465V53.535H35.475V50.525Z" fill="#333333"/>
<path d="M38.485 50.525H35.475V53.535H38.485V50.525Z" fill="#333333"/>
<path d="M41.495 50.525H38.485V53.535H41.495V50.525Z" fill="#333333"/>
<path d="M47.515 50.525H44.505V53.535H47.515V50.525Z" fill="#333333"/>
<path d="M50.525 50.525H47.515V53.535H50.525V50.525Z" fill="#333333"/>
<path d="M56.545 50.525L53.535 50.525V53.535H56.545V50.525Z" fill="#333333"/>
<path d="M74.605 50.525H71.595V53.535H74.605V50.525Z" fill="#333333"/>
<path d="M77.615 50.525L74.605 50.525V53.535H77.615V50.525Z" fill="#333333"/>
<path d="M80.625 50.525H77.615V53.535H80.625V50.525Z" fill="#333333"/>
<path d="M8.385 53.535H5.375V56.545H8.385V53.535Z" fill="#333333"/>
<path d="M11.395 53.535H8.385V56.545H11.395V53.535Z" fill="#333333"/>
<path d="M14.405 53.535H11.395V56.545H14.405V53.535Z" fill="#333333"/>
<path d="M17.415 53.535H14.405V56.545H17.415V53.535Z" fill="#333333"/>
<path d="M20.425 53.535H17.415V56.545H20.425V53.535Z" fill="#333333"/>
<path d="M26.445 53.535H23.435V56.545H26.445V53.535Z" fill="#333333"/>
<path d="M35.475 53.535H32.465V56.545H35.475V53.535Z" fill="#333333"/>
<path d="M38.485 53.535H35.475V56.545H38.485V53.535Z" fill="#333333"/>
<path d="M41.495 53.535H38.485V56.545H41.495V53.535Z" fill="#333333"/>
<path d="M44.505 53.535H41.495V56.545H44.505V53.535Z" fill="#333333"/>
<path d="M47.515 53.535H44.505V56.545H47.515V53.535Z" fill="#333333"/>
<path d="M56.545 53.535H53.535V56.545H56.545V53.535Z" fill="#333333"/>
<path d="M59.555 53.535H56.545V56.545H59.555V53.535Z" fill="#333333"/>
<path d="M62.565 53.535H59.555V56.545H62.565V53.535Z" fill="#333333"/>
<path d="M65.575 53.535H62.565V56.545H65.575V53.535Z" fill="#333333"/>
<path d="M68.585 53.535H65.575V56.545H68.585V53.535Z" fill="#333333"/>
<path d="M32.465 56.545H29.455V59.555H32.465V56.545Z" fill="#333333"/>
<path d="M56.545 56.545H53.535V59.555H56.545V56.545Z" fill="#333333"/>
<path d="M68.585 56.545H65.575V59.555H68.585V56.545Z" fill="#333333"/>
<path d="M71.595 56.545H68.585V59.555H71.595V56.545Z" fill="#333333"/>
<path d="M77.615 56.545H74.605V59.555H77.615V56.545Z" fill="#333333"/>
<path d="M80.625 56.545H77.615V59.555H80.625V56.545Z" fill="#333333"/>
<path d="M8.385 59.555H5.375V62.565H8.385V59.555Z" fill="#333333"/>
<path d="M11.395 59.555H8.385V62.565H11.395V59.555Z" fill="#333333"/>
<path d="M14.405 59.555H11.395V62.565H14.405V59.555Z" fill="#333333"/>
<path d="M17.415 59.555H14.405V62.565H17.415V59.555Z" fill="#333333"/>
<path d="M20.425 59.555H17.415V62.565H20.425V59.555Z" fill="#333333"/>
<path d="M23.435 59.555H20.425V62.565H23.435V59.555Z" fill="#333333"/>
<path d="M26.445 59.555H23.435V62.565H26.445V59.555Z" fill="#333333"/>
<path d="M32.465 59.555H29.455V62.565H32.465V59.555Z" fill="#333333"/>
<path d="M38.485 59.555H35.475V62.565H38.485V59.555Z" fill="#333333"/>
<path d="M41.495 59.555H38.485V62.565H41.495V59.555Z" fill="#333333"/>
<path d="M44.505 59.555H41.495V62.565H44.505V59.555Z" fill="#333333"/>
<path d="M50.525 59.555H47.515V62.565H50.525V59.555Z" fill="#333333"/>
<path d="M53.535 59.555H50.525V62.565H53.535V59.555Z" fill="#333333"/>
<path d="M56.545 59.555H53.535V62.565H56.545V59.555Z" fill="#333333"/>
<path d="M62.565 59.555H59.555V62.565H62.565V59.555Z" fill="#333333"/>
<path d="M68.585 59.555H65.575V62.565H68.585V59.555Z" fill="#333333"/>
<path d="M71.595 59.555H68.585V62.565H71.595V59.555Z" fill="#333333"/>
<path d="M74.605 59.555H71.595V62.565H74.605V59.555Z" fill="#333333"/>
<path d="M8.385 62.565H5.375V65.575H8.385V62.565Z" fill="#333333"/>
<path d="M26.445 62.565H23.435L23.435 65.575H26.445V62.565Z" fill="#333333"/>
<path d="M32.465 62.565H29.455V65.575H32.465V62.565Z" fill="#333333"/>
<path d="M38.485 62.565H35.475V65.575H38.485V62.565Z" fill="#333333"/>
<path d="M44.505 62.565H41.495V65.575H44.505V62.565Z" fill="#333333"/>
<path d="M53.535 62.565H50.525L50.525 65.575H53.535V62.565Z" fill="#333333"/>
<path d="M56.545 62.565H53.535V65.575H56.545V62.565Z" fill="#333333"/>
<path d="M68.585 62.565H65.575V65.575H68.585V62.565Z" fill="#333333"/>
<path d="M71.595 62.565H68.585V65.575H71.595V62.565Z" fill="#333333"/>
<path d="M77.615 62.565H74.605V65.575H77.615V62.565Z" fill="#333333"/>
<path d="M80.625 62.565H77.615V65.575H80.625V62.565Z" fill="#333333"/>
<path d="M8.385 65.575H5.375V68.585H8.385V65.575Z" fill="#333333"/>
<path d="M14.405 65.575H11.395V68.585H14.405V65.575Z" fill="#333333"/>
<path d="M17.415 65.575H14.405V68.585H17.415V65.575Z" fill="#333333"/>
<path d="M20.425 65.575H17.415V68.585H20.425V65.575Z" fill="#333333"/>
<path d="M26.445 65.575H23.435V68.585H26.445V65.575Z" fill="#333333"/>
<path d="M32.465 65.575H29.455V68.585H32.465V65.575Z" fill="#333333"/>
<path d="M35.475 65.575H32.465V68.585H35.475V65.575Z" fill="#333333"/>
<path d="M41.495 65.575H38.485V68.585H41.495V65.575Z" fill="#333333"/>
<path d="M47.515 65.575H44.505V68.585H47.515V65.575Z" fill="#333333"/>
<path d="M50.525 65.575H47.515V68.585H50.525L50.525 65.575Z" fill="#333333"/>
<path d="M53.535 65.575H50.525L50.525 68.585H53.535V65.575Z" fill="#333333"/>
<path d="M56.545 65.575H53.535V68.585H56.545V65.575Z" fill="#333333"/>
<path d="M59.555 65.575H56.545V68.585H59.555V65.575Z" fill="#333333"/>
<path d="M62.565 65.575H59.555V68.585H62.565V65.575Z" fill="#333333"/>
<path d="M65.575 65.575H62.565V68.585H65.575V65.575Z" fill="#333333"/>
<path d="M68.585 65.575H65.575V68.585H68.585V65.575Z" fill="#333333"/>
<path d="M8.385 68.585H5.375V71.595H8.385V68.585Z" fill="#333333"/>
<path d="M14.405 68.585H11.395V71.595H14.405V68.585Z" fill="#333333"/>
<path d="M17.415 68.585H14.405V71.595H17.415V68.585Z" fill="#333333"/>
<path d="M20.425 68.585H17.415V71.595H20.425V68.585Z" fill="#333333"/>
<path d="M26.445 68.585H23.435V71.595H26.445V68.585Z" fill="#333333"/>
<path d="M32.465 68.585H29.455V71.595H32.465V68.585Z" fill="#333333"/>
<path d="M35.475 68.585H32.465V71.595H35.475V68.585Z" fill="#333333"/>
<path d="M44.505 68.585H41.495V71.595H44.505V68.585Z" fill="#333333"/>
<path d="M50.525 68.585H47.515V71.595H50.525V68.585Z" fill="#333333"/>
<path d="M59.555 68.585H56.545V71.595H59.555V68.585Z" fill="#333333"/>
<path d="M62.565 68.585H59.555V71.595H62.565V68.585Z" fill="#333333"/>
<path d="M80.625 68.585H77.615V71.595H80.625V68.585Z" fill="#333333"/>
<path d="M8.385 71.595H5.375V74.605H8.385V71.595Z" fill="#333333"/>
<path d="M14.405 71.595H11.395V74.605H14.405V71.595Z" fill="#333333"/>
<path d="M17.415 71.595H14.405V74.605H17.415V71.595Z" fill="#333333"/>
<path d="M20.425 71.595H17.415V74.605H20.425V71.595Z" fill="#333333"/>
<path d="M26.445 71.595H23.435V74.605H26.445V71.595Z" fill="#333333"/>
<path d="M35.475 71.595H32.465V74.605H35.475V71.595Z" fill="#333333"/>
<path d="M41.495 71.595H38.485V74.605H41.495V71.595Z" fill="#333333"/>
<path d="M44.505 71.595H41.495V74.605H44.505V71.595Z" fill="#333333"/>
<path d="M50.525 71.595H47.515V74.605H50.525V71.595Z" fill="#333333"/>
<path d="M53.535 71.595H50.525V74.605H53.535V71.595Z" fill="#333333"/>
<path d="M56.545 71.595H53.535V74.605H56.545V71.595Z" fill="#333333"/>
<path d="M62.565 71.595H59.555V74.605H62.565V71.595Z" fill="#333333"/>
<path d="M65.575 71.595H62.565V74.605H65.575V71.595Z" fill="#333333"/>
<path d="M68.585 71.595H65.575V74.605H68.585V71.595Z" fill="#333333"/>
<path d="M74.605 71.595H71.595V74.605H74.605V71.595Z" fill="#333333"/>
<path d="M77.615 71.595H74.605V74.605H77.615V71.595Z" fill="#333333"/>
<path d="M80.625 71.595H77.615V74.605H80.625V71.595Z" fill="#333333"/>
<path d="M8.385 74.605H5.375V77.615H8.385V74.605Z" fill="#333333"/>
<path d="M26.445 74.605H23.435V77.615H26.445V74.605Z" fill="#333333"/>
<path d="M41.495 74.605H38.485V77.615H41.495V74.605Z" fill="#333333"/>
<path d="M59.555 74.605H56.545V77.615H59.555V74.605Z" fill="#333333"/>
<path d="M65.575 74.605H62.565V77.615H65.575V74.605Z" fill="#333333"/>
<path d="M71.595 74.605H68.585V77.615H71.595V74.605Z" fill="#333333"/>
<path d="M74.605 74.605H71.595V77.615H74.605V74.605Z" fill="#333333"/>
<path d="M77.615 74.605H74.605V77.615H77.615V74.605Z" fill="#333333"/>
<path d="M80.625 74.605H77.615V77.615H80.625V74.605Z" fill="#333333"/>
<path d="M8.385 77.615H5.375V80.625H8.385V77.615Z" fill="#333333"/>
<path d="M11.395 77.615H8.385V80.625H11.395V77.615Z" fill="#333333"/>
<path d="M14.405 77.615H11.395V80.625H14.405V77.615Z" fill="#333333"/>
<path d="M17.415 77.615H14.405V80.625H17.415V77.615Z" fill="#333333"/>
<path d="M20.425 77.615H17.415V80.625H20.425V77.615Z" fill="#333333"/>
<path d="M23.435 77.615H20.425V80.625H23.435L23.435 77.615Z" fill="#333333"/>
<path d="M26.445 77.615H23.435L23.435 80.625H26.445V77.615Z" fill="#333333"/>
<path d="M32.465 77.615H29.455V80.625H32.465V77.615Z" fill="#333333"/>
<path d="M53.535 77.615H50.525V80.625H53.535V77.615Z" fill="#333333"/>
<path d="M56.545 77.615H53.535V80.625H56.545V77.615Z" fill="#333333"/>
<path d="M65.575 77.615H62.565V80.625H65.575V77.615Z" fill="#333333"/>
<path d="M68.585 77.615H65.575V80.625H68.585V77.615Z" fill="#333333"/>
<path d="M71.595 77.615H68.585V80.625H71.595V77.615Z" fill="#333333"/>
<path d="M80.625 77.615H77.615V80.625H80.625V77.615Z" fill="#333333"/>
</g>
<defs>
<clipPath id="clip0_2_8">
<rect width="86" height="86" fill="white"/>
</clipPath>
</defs>
</svg>
